<svg width="16" height="16" viewBox="0 0 16 16" fill="none" xmlns="http://www.w3.org/2000/svg">
<path d="M8.00001 4.66659C7.63334 4.66659 7.33334 4.96659 7.33334 5.33325V7.33325H5.33334C4.96668 7.33325 4.66668 7.63325 4.66668 7.99992C4.66668 8.36659 4.96668 8.66659 5.33334 8.66659H7.33334V10.6666C7.33334 11.0333 7.63334 11.3333 8.00001 11.3333C8.36668 11.3333 8.66668 11.0333 8.66668 10.6666V8.66659H10.6667C11.0333 8.66659 11.3333 8.36659 11.3333 7.99992C11.3333 7.63325 11.0333 7.33325 10.6667 7.33325H8.66668V5.33325C8.66668 4.96659 8.36668 4.66659 8.00001 4.66659ZM8.00001 1.33325C4.32001 1.33325 1.33334 4.31992 1.33334 7.99992C1.33334 11.6799 4.32001 14.6666 8.00001 14.6666C11.68 14.6666 14.6667 11.6799 14.6667 7.99992C14.6667 4.31992 11.68 1.33325 8.00001 1.33325ZM8.00001 13.3333C5.06001 13.3333 2.66668 10.9399 2.66668 7.99992C2.66668 5.05992 5.06001 2.66659 8.00001 2.66659C10.94 2.66659 13.3333 5.05992 13.3333 7.99992C13.3333 10.9399 10.94 13.3333 8.00001 13.3333Z" fill="#9873FF"/>
</svg>
